<svg width="60" height="60" viewBox="0 0 60 60" fill="none" xmlns="http://www.w3.org/2000/svg">
<path d="M42.5 30C42.5 32.4723 41.7669 34.889 40.3934 36.9446C39.0199 39.0002 37.0676 40.6024 34.7835 41.5485C32.4995 42.4946 29.9861 42.7421 27.5614 42.2598C25.1366 41.7775 22.9093 40.587 21.1612 38.8388C19.413 37.0907 18.2225 34.8634 17.7402 32.4386C17.2579 30.0139 17.5054 27.5005 18.4515 25.2165C19.3976 22.9324 20.9998 20.9801 23.0554 19.6066C25.111 18.2331 27.5277 17.5 30 17.5" stroke="#0068DE" stroke-width="3" stroke-linecap="round" stroke-linejoin="round"/>
<path d="M35 5.5C33.3833 5.17 31.7167 5.00333 30 5C16.1925 5 5 16.1925 5 30C5 43.8075 16.1925 55 30 55C43.8075 55 55 43.8075 55 30C54.9967 28.2833 54.83 26.6167 54.5 25" stroke="#0068DE" stroke-width="3" stroke-linecap="round" stroke-linejoin="round"/>
<path d="M30.075 29.9045L41.4575 18.522M49.35 10.862L47.9675 5.89204C47.9122 5.7027 47.8111 5.52991 47.6731 5.38895C47.5352 5.24799 47.3646 5.14321 47.1765 5.08389C46.9884 5.02456 46.7885 5.01252 46.5946 5.04882C46.4008 5.08513 46.2188 5.16867 46.065 5.29204C42.475 8.22454 38.5649 12.177 41.7574 18.4095C48.1924 21.4095 51.8674 17.3645 54.6824 13.962C54.8098 13.8053 54.8961 13.6193 54.9335 13.4209C54.9709 13.2225 54.9582 13.0178 54.8967 12.8255C54.8352 12.6332 54.7267 12.4593 54.581 12.3194C54.4353 12.1796 54.2571 12.0782 54.0625 12.0245L49.35 10.862Z" stroke="#0068DE" stroke-width="3" stroke-linecap="round" stroke-linejoin="round"/>
</svg>
