<svg width="60" height="60" viewBox="0 0 60 60" fill="none" xmlns="http://www.w3.org/2000/svg">
<path fill-rule="evenodd" clip-rule="evenodd" d="M41.25 23.1687C42.7038 23.6038 43.75 23.75 43.75 23.75V20H46.25C47.9076 20 49.4973 19.3415 50.6694 18.1694C51.8415 16.9973 52.5 15.4076 52.5 13.75C52.5 12.0924 51.8415 10.5027 50.6694 9.33058C49.4973 8.15848 47.9076 7.5 46.25 7.5H39.045C37.3092 7.5 35.6444 8.18956 34.417 9.41699C33.1896 10.6444 32.5 12.3092 32.5 14.045C32.5 19.6925 37.935 22.1775 41.25 23.1687ZM50 13.75C50 14.7446 49.6049 15.6984 48.9016 16.4017C48.1984 17.1049 47.2446 17.5 46.25 17.5H41.25V20.5437C40.5643 20.3108 39.8948 20.0323 39.2463 19.71C36.7675 18.4675 35 16.7 35 14.045C35 12.9722 35.4262 11.9433 36.1848 11.1848C36.9433 10.4262 37.9722 10 39.045 10H46.25C47.2446 10 48.1984 10.3951 48.9016 11.0983C49.6049 11.8016 50 12.7554 50 13.75ZM18.5213 22.4913C16.8831 22.4345 15.3329 21.7363 14.2049 20.5472C13.0768 19.358 12.4613 17.7732 12.491 16.1344C12.5207 14.4955 13.1932 12.934 14.3636 11.7865C15.5339 10.639 17.1084 9.99736 18.7475 10H22.7087C24.311 10 25.8476 10.6365 26.9806 11.7694C28.1135 12.9024 28.75 14.439 28.75 16.0413C28.75 21.0938 24.2125 23.4038 21.25 24.375C19.815 24.845 18.75 25 18.75 25V22.5L18.5213 22.4913ZM21.25 20.0887L18.6125 19.9937C17.6214 19.9722 16.6791 19.5588 15.9921 18.8441C15.3051 18.1293 14.9293 17.1715 14.947 16.1803C14.9647 15.189 15.3744 14.2452 16.0865 13.5554C16.7986 12.8657 17.755 12.4862 18.7463 12.5H22.7075C23.1726 12.4998 23.6333 12.5913 24.0631 12.7692C24.4929 12.9471 24.8834 13.2079 25.2123 13.5368C25.5413 13.8656 25.8023 14.2561 25.9803 14.6858C26.1584 15.1155 26.25 15.5761 26.25 16.0413C26.25 18.435 24.7288 20.0037 22.595 21.1162C22.145 21.3512 21.6888 21.5513 21.25 21.7213V20.0887ZM35 30C35 32.7625 32.7625 35 30 35C27.2375 35 25 32.7625 25 30C25 27.2375 27.2375 25 30 25C32.7625 25 35 27.2375 35 30ZM32.5 30C32.5 30.663 32.2366 31.2989 31.7678 31.7678C31.2989 32.2366 30.663 32.5 30 32.5C29.337 32.5 28.7011 32.2366 28.2322 31.7678C27.7634 31.2989 27.5 30.663 27.5 30C27.5 29.337 27.7634 28.7011 28.2322 28.2322C28.7011 27.7634 29.337 27.5 30 27.5C30.663 27.5 31.2989 27.7634 31.7678 28.2322C32.2366 28.7011 32.5 29.337 32.5 30ZM23.75 32.5C23.75 35.2625 21.5125 37.5 18.75 37.5C15.9875 37.5 13.75 35.2625 13.75 32.5C13.75 29.7375 15.9875 27.5 18.75 27.5C21.5125 27.5 23.75 29.7375 23.75 32.5ZM21.25 32.5C21.25 33.163 20.9866 33.7989 20.5178 34.2678C20.0489 34.7366 19.413 35 18.75 35C18.087 35 17.4511 34.7366 16.9822 34.2678C16.5134 33.7989 16.25 33.163 16.25 32.5C16.25 31.837 16.5134 31.2011 16.9822 30.7322C17.4511 30.2634 18.087 30 18.75 30C19.413 30 20.0489 30.2634 20.5178 30.7322C20.9866 31.2011 21.25 31.837 21.25 32.5ZM7.5 45.6825C7.5 41.9025 14.995 40 18.75 40C19.4812 40 20.355 40.0725 21.2875 40.2163C22.9638 38.9875 26.0338 37.5 30 37.5C33.9662 37.5 37.0363 38.9875 38.7138 40.2163C39.5526 40.0809 40.4004 40.0086 41.25 40C45.005 40 52.5 41.9037 52.5 45.6812V52.5H7.5V45.6825ZM27.065 45.0287C27.5 45.4338 27.5 45.645 27.5 45.6812V50H10V45.6812C10 45.6437 10 45.4338 10.435 45.0287C10.8887 44.605 11.6375 44.1538 12.655 43.7412C14.695 42.9162 17.1875 42.5 18.75 42.5C20.3125 42.5 22.805 42.9162 24.845 43.7412C25.8625 44.1538 26.6112 44.605 27.065 45.0287ZM35.1775 41.07C33.5432 40.3625 31.7809 39.9983 30 40C27.93 40 26.17 40.4825 24.8237 41.07C27.5925 42 30 43.54 30 45.6825C30 43.54 32.4075 42.0012 35.1775 41.07ZM50 45.6825C50 45.645 50 45.4338 49.565 45.0287C49.1113 44.605 48.3625 44.1538 47.345 43.7412C45.305 42.9162 42.8125 42.5 41.25 42.5C39.6875 42.5 37.195 42.9162 35.155 43.7412C34.1375 44.1538 33.3888 44.605 32.935 45.0287C32.5 45.4338 32.5 45.645 32.5 45.6812V50H50V45.6825ZM41.25 37.5C44.0125 37.5 46.25 35.2625 46.25 32.5C46.25 29.7375 44.0125 27.5 41.25 27.5C38.4875 27.5 36.25 29.7375 36.25 32.5C36.25 35.2625 38.4875 37.5 41.25 37.5ZM41.25 35C41.913 35 42.5489 34.7366 43.0178 34.2678C43.4866 33.7989 43.75 33.163 43.75 32.5C43.75 31.837 43.4866 31.2011 43.0178 30.7322C42.5489 30.2634 41.913 30 41.25 30C40.587 30 39.9511 30.2634 39.4822 30.7322C39.0134 31.2011 38.75 31.837 38.75 32.5C38.75 33.163 39.0134 33.7989 39.4822 34.2678C39.9511 34.7366 40.587 35 41.25 35Z" fill="#0068DE"/>
</svg>
