<svg width="60" height="60" viewBox="0 0 60 60" fill="none" xmlns="http://www.w3.org/2000/svg">
<path d="M11.5801 23.5406C11.7168 23.3987 11.8243 23.2314 11.8963 23.048C11.9683 22.8647 12.0035 22.6689 11.9999 22.472C11.9963 22.275 11.9539 22.0807 11.8752 21.9002C11.7965 21.7196 11.683 21.5563 11.5411 21.4196C11.3993 21.2829 11.2319 21.1754 11.0486 21.1034C10.8652 21.0314 10.6695 20.9962 10.4725 20.9998C10.2756 21.0034 10.0813 21.0458 9.90071 21.1245C9.72013 21.2032 9.55683 21.3167 9.42013 21.4586L4.19712 26.8766C3.38871 27.7152 2.93701 28.8347 2.93701 29.9996C2.93701 31.1644 3.38871 32.2839 4.19712 33.1226L9.41712 38.5436C9.69321 38.83 10.0718 38.995 10.4695 39.0023C10.8673 39.0097 11.2517 38.8587 11.5381 38.5826C11.8246 38.3065 11.9896 37.9279 11.9969 37.5301C12.0042 37.1324 11.8532 36.748 11.5771 36.4616L6.35712 31.0406C6.08765 30.761 5.93709 30.3879 5.93709 29.9996C5.93709 29.6113 6.08765 29.2381 6.35712 28.9586L11.5801 23.5406ZM21.4561 9.41957C21.3143 9.55627 21.2008 9.71957 21.1221 9.90015C21.0434 10.0807 21.001 10.275 20.9974 10.472C20.9937 10.6689 21.0289 10.8647 21.101 11.048C21.173 11.2314 21.2804 11.3987 21.4171 11.5406C21.6932 11.827 22.0718 11.992 22.4695 11.9993C22.6665 12.003 22.8622 11.9678 23.0456 11.8957C23.2289 11.8237 23.3963 11.7163 23.5381 11.5796L28.9561 6.35957C29.2357 6.09009 29.6088 5.93953 29.9971 5.93953C30.3854 5.93953 30.7586 6.09009 31.0381 6.35957L36.4561 11.5796C36.7453 11.8384 37.1235 11.9752 37.5113 11.9611C37.8992 11.9469 38.2664 11.783 38.536 11.5038C38.8055 11.2245 38.9563 10.8517 38.9567 10.4636C38.9571 10.0755 38.8071 9.70236 38.5381 9.42257L33.1201 4.19957C32.2815 3.39115 31.162 2.93945 29.9971 2.93945C28.8323 2.93945 27.7128 3.39115 26.8741 4.19957L21.4561 9.41957ZM50.5771 21.4556C50.301 21.1691 49.9225 21.0041 49.5247 20.9968C49.1269 20.9895 48.7426 21.1405 48.4561 21.4166C48.1697 21.6927 48.0047 22.0712 47.9974 22.469C47.99 22.8668 48.141 23.2511 48.4171 23.5376L53.6551 28.9706C53.9255 29.2503 54.0766 29.6241 54.0766 30.0131C54.0766 30.4021 53.9255 30.7759 53.6551 31.0556L48.4201 36.4556C48.1468 36.7419 47.9978 37.1246 48.0055 37.5204C48.0132 37.9161 48.177 38.2928 48.4612 38.5683C48.7454 38.8438 49.127 38.9957 49.5227 38.9911C49.9185 38.9865 50.2964 38.8256 50.5741 38.5436L55.8061 33.1436C56.6184 32.3056 57.0734 31.1849 57.0751 30.0179C57.0768 28.8509 56.625 27.7288 55.8151 26.8886L50.5771 21.4556ZM23.5381 48.4196C23.3963 48.2829 23.2289 48.1754 23.0456 48.1034C22.8622 48.0314 22.6665 47.9962 22.4695 47.9998C22.2726 48.0034 22.0783 48.0458 21.8977 48.1245C21.7171 48.2032 21.5538 48.3167 21.4171 48.4586C21.2804 48.6004 21.173 48.7678 21.101 48.9511C21.0289 49.1345 20.9937 49.3302 20.9974 49.5271C21.001 49.7241 21.0434 49.9184 21.1221 50.099C21.2008 50.2796 21.3143 50.4429 21.4561 50.5796L26.8921 55.8146C27.7322 56.6235 28.8536 57.0748 30.0199 57.0731C31.1862 57.0714 32.3063 56.617 33.1441 55.8056L38.5411 50.5766C38.6843 50.4399 38.7991 50.2762 38.8787 50.095C38.9584 49.9137 39.0013 49.7185 39.0052 49.5206C39.009 49.3227 38.9737 49.126 38.9011 48.9418C38.8286 48.7576 38.7203 48.5896 38.5825 48.4474C38.4447 48.3053 38.2802 48.1918 38.0983 48.1136C37.9165 48.0354 37.7209 47.9939 37.523 47.9916C37.325 47.9893 37.1286 48.0262 36.945 48.1001C36.7614 48.1741 36.5942 48.2837 36.4531 48.4226L31.0561 53.6516C30.7766 53.921 30.4034 54.0716 30.0151 54.0716C29.6268 54.0716 29.2537 53.921 28.9741 53.6516L23.5381 48.4196ZM24.0001 17.9996C22.4088 17.9996 20.8827 18.6317 19.7575 19.7569C18.6323 20.8821 18.0001 22.4083 18.0001 23.9996V35.9996C18.0001 37.5909 18.6323 39.117 19.7575 40.2422C20.8827 41.3674 22.4088 41.9996 24.0001 41.9996H36.0001C37.5914 41.9996 39.1175 41.3674 40.2428 40.2422C41.368 39.117 42.0001 37.5909 42.0001 35.9996V23.9996C42.0001 22.4083 41.368 20.8821 40.2428 19.7569C39.1175 18.6317 37.5914 17.9996 36.0001 17.9996H24.0001ZM21.0001 23.9996C21.0001 23.2039 21.3162 22.4409 21.8788 21.8782C22.4414 21.3156 23.2045 20.9996 24.0001 20.9996H36.0001C36.7958 20.9996 37.5588 21.3156 38.1214 21.8782C38.6841 22.4409 39.0001 23.2039 39.0001 23.9996V35.9996C39.0001 36.7952 38.6841 37.5583 38.1214 38.1209C37.5588 38.6835 36.7958 38.9996 36.0001 38.9996H24.0001C23.2045 38.9996 22.4414 38.6835 21.8788 38.1209C21.3162 37.5583 21.0001 36.7952 21.0001 35.9996V23.9996Z" fill="#0068DE"/>
</svg>
