<svg width="80" height="60" viewBox="0 0 80 60" fill="none" xmlns="http://www.w3.org/2000/svg">
<g clip-path="url(#clip0_484_209)">
<path d="M7.5475 40.725C7.8775 40.8037 8.32563 41.2106 8.455 41.5819L9.11125 43.1644C9.25937 43.4681 9.23125 44.07 9.055 44.3588L6.43563 48.6413C5.875 49.56 5.99125 50.8613 6.745 51.705L8.96313 53.9212C9.73563 54.6075 11.0988 54.7313 11.9875 54.1931L16.27 51.5737C16.5381 51.4088 17.1138 51.3506 17.5169 51.54L19.0975 52.1925C19.4163 52.3031 19.8231 52.7494 19.9019 53.0794L21.0775 57.9619C21.3269 58.9969 22.315 59.8481 23.3762 59.9456C23.3762 59.9456 24.0269 60.0056 25.0019 60.0056C25.9769 60.0056 26.6275 59.9456 26.6294 59.9456C27.1669 59.8832 27.6734 59.6607 28.0829 59.307C28.4925 58.9533 28.7863 58.4846 28.9263 57.9619L30.1038 53.0794C30.1825 52.7513 30.5875 52.3031 30.9587 52.1738L32.5412 51.5175C32.8206 51.3806 33.4675 51.4088 33.7356 51.5737L38.0181 54.1931C38.395 54.4237 38.845 54.5456 39.3231 54.5456C39.97 54.5456 40.5962 54.3188 41.0819 53.8856L43.2981 51.6675C43.6487 51.2524 43.8629 50.7394 43.9116 50.1982C43.9602 49.6571 43.841 49.1141 43.57 48.6431L40.9506 44.3606C40.7744 44.0719 40.7463 43.47 40.9169 43.1137L41.5694 41.5331C41.68 41.2144 42.1262 40.8075 42.4562 40.7288L47.3387 39.5531C47.8606 39.4108 48.3281 39.116 48.6814 38.7065C49.0348 38.297 49.258 37.7914 49.3225 37.2544C49.3225 37.2544 49.3825 36.6038 49.3825 35.6288C49.3825 34.6538 49.3225 34.0031 49.3225 34.0013C49.258 33.4642 49.0348 32.9586 48.6814 32.5491C48.3281 32.1396 47.8606 31.8449 47.3387 31.7025L42.4581 30.5287C42.1281 30.45 41.68 30.0431 41.5506 29.6719L40.8944 28.0894C40.7463 27.7856 40.7744 27.1838 40.9506 26.895L43.57 22.6125C44.1306 21.6938 44.0144 20.3925 43.2606 19.5487L41.0425 17.3325C40.2681 16.6444 38.9031 16.5206 38.0181 17.0606L33.7356 19.68C33.4675 19.8431 32.89 19.905 32.4887 19.7137L30.9081 19.0613C30.5894 18.9506 30.1844 18.5044 30.1056 18.1744L28.9281 13.2919C28.7858 12.7701 28.491 12.3026 28.0815 11.9492C27.672 11.5958 27.1664 11.3726 26.6294 11.3081C26.6256 11.31 25.975 11.25 25 11.25C24.025 11.25 23.3744 11.31 23.3725 11.31C22.8355 11.3745 22.3299 11.5977 21.9204 11.9511C21.5109 12.3044 21.2161 12.7719 21.0737 13.2938L19.9 18.1725C19.8212 18.5025 19.4144 18.9506 19.0431 19.08L17.4606 19.7362C17.1794 19.8731 16.5344 19.8431 16.2662 19.68L11.9856 17.0606C11.0988 16.5206 9.76375 16.6144 8.92188 17.3681L6.70563 19.5863C6.35502 20.0013 6.14082 20.5144 6.09217 21.0555C6.04352 21.5967 6.16279 22.1397 6.43375 22.6106L9.05312 26.8931C9.22937 27.1819 9.2575 27.7838 9.08687 28.14L8.43437 29.7206C8.32375 30.0394 7.8775 30.4463 7.5475 30.525L2.665 31.7006C2.14319 31.843 1.6757 32.1378 1.32232 32.5473C0.968939 32.9568 0.745735 33.4623 0.68125 33.9994C0.685 33.9994 0.625 34.65 0.625 35.625C0.625 36.6 0.685 37.2506 0.685 37.2525C0.749485 37.7895 0.972689 38.2951 1.32607 38.7046C1.67945 39.1141 2.14694 39.4089 2.66875 39.5513L7.5475 40.725ZM2.5 35.625C2.5 34.7663 2.55062 34.1869 2.5525 34.1681C2.58304 34.0225 2.64995 33.887 2.74699 33.7742C2.84404 33.6614 2.96806 33.575 3.1075 33.5231L7.99 32.3475C8.93688 32.1188 9.89125 31.2525 10.1875 30.3844L10.795 28.9088C11.2225 28.0331 11.1625 26.7469 10.6544 25.9144L8.035 21.6337C7.90937 21.4256 7.945 21.0131 8.06875 20.8725L10.2081 18.7312C10.3787 18.5794 10.8138 18.5419 11.0087 18.66L15.2913 21.2794C16.1031 21.7762 17.4944 21.81 18.2313 21.4444L19.7088 20.8331C20.6294 20.5162 21.4956 19.5619 21.7244 18.6131L22.8981 13.7325C22.9498 13.5927 23.036 13.4683 23.1488 13.3709C23.2616 13.2735 23.3973 13.2063 23.5431 13.1756C23.5619 13.1756 24.1413 13.125 25 13.125C25.8587 13.125 26.4381 13.1756 26.4569 13.1775C26.6025 13.208 26.738 13.2749 26.8508 13.372C26.9636 13.469 27.05 13.5931 27.1019 13.7325L28.2775 18.6131C28.5063 19.56 29.3706 20.5163 30.2406 20.8125L31.7163 21.42C32.5731 21.84 33.9006 21.7744 34.7106 21.2794L38.9912 18.66C39.1862 18.5419 39.6475 18.6038 39.7525 18.6938L41.8937 20.8331C42.055 21.015 42.0906 21.4256 41.965 21.6337L39.3456 25.9162C38.8375 26.7469 38.7775 28.035 39.1806 28.8563L39.7919 30.3337C40.1087 31.2544 41.0631 32.1206 42.0119 32.3494L46.8925 33.5231C47.0323 33.5748 47.1567 33.661 47.2541 33.7738C47.3515 33.8866 47.4187 34.0223 47.4494 34.1681C47.4494 34.1869 47.5 34.7663 47.5 35.625C47.5 36.4837 47.4494 37.0631 47.4475 37.0819C47.417 37.2275 47.3501 37.363 47.253 37.4758C47.156 37.5886 47.0319 37.675 46.8925 37.7269L42.01 38.9025C41.0631 39.1312 40.1087 39.9975 39.8125 40.8656L39.205 42.3413C38.7775 43.2169 38.8375 44.5031 39.3456 45.3356L41.965 49.6162C42.0906 49.8244 42.055 50.2369 41.9313 50.3775L39.7919 52.5187C39.6562 52.6198 39.4903 52.672 39.3213 52.6669C39.2071 52.6702 39.0939 52.6438 38.9931 52.59L34.7106 49.9706C33.9006 49.4756 32.5094 49.44 31.7706 49.8056L30.2931 50.4169C29.3725 50.7337 28.5062 51.69 28.2794 52.6369L27.1038 57.5175C27.0521 57.6573 26.9658 57.7817 26.853 57.8791C26.7402 57.9765 26.6046 58.0437 26.4587 58.0744C26.4381 58.0744 25.8587 58.125 25 58.125C24.1413 58.125 23.5619 58.0744 23.5431 58.0725C23.3975 58.042 23.262 57.9751 23.1492 57.878C23.0364 57.781 22.95 57.6569 22.8981 57.5175L21.7225 52.635C21.4937 51.6881 20.6275 50.7337 19.7594 50.4375L18.2838 49.83C17.8649 49.6328 17.406 49.5353 16.9431 49.545C16.3263 49.545 15.7394 49.6969 15.2894 49.9725L11.0087 52.5919C10.8138 52.71 10.3506 52.6463 10.2475 52.5581L8.10625 50.4169C7.945 50.235 7.90937 49.8244 8.035 49.6162L10.6544 45.3337C11.1625 44.5031 11.2225 43.215 10.8194 42.3938L10.2081 40.9163C9.89125 39.9956 8.93688 39.1294 7.98812 38.9006L3.1075 37.7269C2.96771 37.6752 2.84331 37.589 2.74592 37.4762C2.64853 37.3634 2.58134 37.2277 2.55062 37.0819C2.55062 37.0631 2.5 36.4837 2.5 35.625Z" fill="#0068DE"/>
<path d="M25 45.9376C30.6869 45.9376 35.3125 41.312 35.3125 35.6251C35.3125 29.9382 30.6869 25.3126 25 25.3126C19.3131 25.3126 14.6875 29.9382 14.6875 35.6251C14.6875 41.312 19.3131 45.9376 25 45.9376ZM25 27.1876C29.6519 27.1876 33.4375 30.9732 33.4375 35.6251C33.4375 40.277 29.6519 44.0626 25 44.0626C20.3481 44.0626 16.5625 40.277 16.5625 35.6251C16.5625 30.9732 20.3481 27.1876 25 27.1876ZM52.1444 9.96386C52.0189 10.1057 51.8465 10.1976 51.6588 10.2226L48.1694 10.1889C47.7388 10.2003 47.3212 10.3393 46.9697 10.5883C46.6182 10.8374 46.3486 11.1851 46.195 11.5876C46.195 11.5876 46.0413 12.0245 45.8725 12.6939C45.7038 13.3632 45.6325 13.8207 45.6325 13.8207C45.5012 14.6664 45.9719 15.602 46.7275 15.9976L49.8044 17.6101C49.9686 17.7357 50.0797 17.9184 50.1156 18.122L50.29 19.3126C50.3004 19.5006 50.2447 19.6864 50.1325 19.8376L47.6538 22.2676C47.0331 22.8751 46.87 23.9139 47.2975 24.7295L48.4206 26.6045C48.895 27.302 49.9225 27.6582 50.7288 27.407L54.1488 26.3607C54.3344 26.3607 54.52 26.432 54.625 26.5164L55.5906 27.2289C55.7312 27.3554 55.8227 27.5273 55.8494 27.7145L55.8156 31.187C55.8081 32.042 56.4081 32.8989 57.2144 33.1801C57.2144 33.1801 57.6512 33.3339 58.3206 33.5026C58.99 33.6714 59.4475 33.7426 59.4475 33.7426C59.4963 33.7501 59.6912 33.7651 59.74 33.7651C60.1245 33.7603 60.5009 33.6546 60.8317 33.4584C61.1624 33.2623 61.4358 32.9827 61.6244 32.6476L63.2369 29.5707C63.3625 29.4065 63.5452 29.2954 63.7487 29.2595L64.9919 29.0795C65.1794 29.0795 65.4006 29.177 65.4625 29.2407L67.8925 31.7195C68.4831 32.3232 69.4787 32.5389 70.3544 32.0757L72.2275 30.9526C72.9437 30.4651 73.2906 29.4714 73.0319 28.6445L71.9969 25.3314C71.9686 25.1254 72.021 24.9165 72.1431 24.7482L72.8556 23.7826C72.9811 23.6408 73.1535 23.5489 73.3413 23.5239L76.8306 23.5576C77.2612 23.5462 77.6788 23.4071 78.0303 23.1581C78.3818 22.9091 78.6514 22.5613 78.805 22.1589C78.805 22.1589 78.9587 21.722 79.1275 21.0526C79.2962 20.3832 79.3675 19.9257 79.3675 19.9257C79.4232 19.495 79.3486 19.0575 79.1535 18.6696C78.9583 18.2816 78.6515 17.9609 78.2725 17.7489L75.1956 16.1364C75.0314 16.0108 74.9203 15.8281 74.8844 15.6245L74.7119 14.4376C74.7015 14.2496 74.7572 14.0638 74.8694 13.9126L77.3481 11.4826C77.9687 10.8751 78.1319 9.83636 77.7044 9.02073L76.5812 7.14573C76.1069 6.45011 75.0812 6.09011 74.2731 6.34136L70.8512 7.38761C70.68 7.38763 70.5132 7.33312 70.375 7.23198L69.4094 6.51948C69.2688 6.39296 69.1773 6.22107 69.1506 6.03386L69.1844 2.56136C69.1766 2.12751 69.0393 1.70589 68.7901 1.35071C68.5408 0.995532 68.191 0.723027 67.7856 0.568232C67.7856 0.568232 67.3488 0.414482 66.6794 0.245732C66.01 0.0769824 65.5525 0.00573242 65.5525 0.00573242C65.4552 -0.00368314 65.3577 -0.0105605 65.26 -0.0148926C64.8755 -0.0101035 64.4991 0.0956568 64.1683 0.291789C63.8376 0.487921 63.5642 0.767535 63.3756 1.10261L61.7631 4.17948C61.6375 4.34371 61.4548 4.45479 61.2513 4.49073L60.0081 4.66886C59.8384 4.66481 59.674 4.6085 59.5375 4.50761L57.1075 2.02886C56.7902 1.71232 56.3792 1.50665 55.9356 1.44247C55.4921 1.37828 55.0396 1.459 54.6456 1.67261L52.7706 2.79386C52.0544 3.28136 51.7075 4.27511 51.9663 5.10198L53.0013 8.41511C53.0295 8.62107 52.9771 8.82998 52.855 8.99823L52.1444 9.96386ZM53.6819 11.0364L54.325 10.1626C54.8275 9.56823 55.0225 8.59886 54.79 7.85823L53.7569 4.54698C53.7475 4.49448 53.7888 4.37636 53.7794 4.37448L55.5569 3.30948L55.7687 3.34136L58.2006 5.82011C58.6319 6.25886 59.3425 6.54386 60.01 6.54386C60.1384 6.54511 60.2666 6.53317 60.3925 6.50823L61.4706 6.34886C61.8753 6.29874 62.2627 6.15505 62.6021 5.92918C62.9416 5.70332 63.2237 5.40148 63.4263 5.04761L65.0369 1.97261C65.0964 1.90963 65.1759 1.86921 65.2619 1.85823C65.2825 1.86011 65.665 1.92386 66.2238 2.06261C66.7806 2.20323 67.1481 2.32886 67.165 2.33636C67.2231 2.36073 67.3075 2.48261 67.3113 2.54261L67.2775 6.01511C67.27 6.79136 67.7369 7.66323 68.3406 8.05698L69.2125 8.70011C69.7919 9.18948 70.7856 9.39573 71.5169 9.16511L74.8431 8.13011C74.9219 8.13011 75.01 8.17886 74.9987 8.15448L76.0638 9.93198C76.0844 9.98073 76.0637 10.1045 76.0319 10.1439L73.5531 12.5757C73 13.1214 72.7131 14.0664 72.865 14.7676L73.0225 15.8457C73.09 16.6182 73.6375 17.4414 74.3256 17.8014L77.4006 19.412C77.4636 19.4715 77.504 19.551 77.515 19.637C77.4609 19.9604 77.3927 20.2814 77.3106 20.5989C77.2331 20.9164 77.1418 21.2305 77.0369 21.5401C77.0125 21.5982 76.8906 21.6826 76.8306 21.6864L73.3394 21.6526C72.5687 21.6526 71.7062 22.1195 71.3162 22.7157L70.675 23.5876C70.4224 23.9084 70.2487 24.2841 70.1679 24.6844C70.0872 25.0847 70.1016 25.4983 70.21 25.892L71.2431 29.2032C71.2525 29.2539 71.2113 29.3739 71.2206 29.3757L69.4431 30.4407L69.2313 30.4089L66.7994 27.9301C66.3681 27.4914 65.6575 27.2064 64.99 27.2064C64.8616 27.2051 64.7334 27.217 64.6075 27.242L63.5294 27.4014C63.1247 27.4515 62.7373 27.5952 62.3979 27.821C62.0584 28.0469 61.7763 28.3487 61.5737 28.7026L59.9631 31.7776C59.9036 31.8406 59.8241 31.881 59.7381 31.892C59.4147 31.8379 59.0937 31.7697 58.7762 31.6876C58.4587 31.6101 58.1446 31.5187 57.835 31.4139C57.7769 31.3895 57.6925 31.2676 57.6888 31.2076L57.7225 27.7351C57.73 26.9589 57.2631 26.087 56.6594 25.6932L55.7875 25.0501C55.4665 24.7972 55.0905 24.6233 54.6898 24.5426C54.2892 24.4618 53.8752 24.4764 53.4813 24.5851L50.155 25.6201C50.0744 25.6201 49.9863 25.577 49.9994 25.5957L48.9344 23.8182C48.9137 23.7695 48.9344 23.6457 48.9662 23.6064L51.445 21.1745C51.9981 20.6289 52.285 19.6839 52.1331 18.9826L51.9756 17.9064C51.9253 17.5015 51.7813 17.114 51.5551 16.7746C51.3289 16.4351 51.0267 16.153 50.6725 15.9507L47.5975 14.3401C47.5345 14.2806 47.4941 14.2011 47.4831 14.1151C47.485 14.0945 47.5488 13.712 47.6875 13.1532C47.8281 12.5964 47.9538 12.2289 47.9613 12.212C47.9856 12.1539 48.1075 12.0695 48.1675 12.0657L51.6588 12.0995C52.4294 12.0995 53.2919 11.6326 53.6819 11.0364Z" fill="#0068DE"/>
<path d="M62.5 22.5C65.6012 22.5 68.125 19.9763 68.125 16.875C68.125 13.7738 65.6012 11.25 62.5 11.25C59.3987 11.25 56.875 13.7738 56.875 16.875C56.875 19.9763 59.3987 22.5 62.5 22.5ZM62.5 13.125C64.5681 13.125 66.25 14.8069 66.25 16.875C66.25 18.9431 64.5681 20.625 62.5 20.625C60.4319 20.625 58.75 18.9431 58.75 16.875C58.75 14.8069 60.4319 13.125 62.5 13.125Z" fill="#0068DE"/>
</g>
<defs>
<clipPath id="clip0_484_209">
<rect width="78.75" height="60" fill="white" transform="translate(0.625)"/>
</clipPath>
</defs>
</svg>
