<svg width="60" height="60" viewBox="0 0 60 60" fill="none" xmlns="http://www.w3.org/2000/svg">
<path d="M20 10H45C46.3261 10 47.5979 10.5268 48.5355 11.4645C49.4732 12.4021 50 13.6739 50 15V40M48.5275 48.5425C47.625 49.4425 46.3775 50 45 50H15C13.6739 50 12.4021 49.4732 11.4645 48.5355C10.5268 47.5979 10 46.3261 10 45V15C10 13.625 10.555 12.3825 11.45 11.4775M10 20H20M30 20H50M50 30H40M30 30H10M10 40H40M22.5 10V12.5M35 20V25M20 30V40M27.5 40V50M7.5 7.5L52.5 52.5" stroke="#0068DE" stroke-width="2" stroke-linecap="round" stroke-linejoin="round"/>
</svg>
