<svg width="60" height="60" viewBox="0 0 60 60" fill="none" xmlns="http://www.w3.org/2000/svg">
<path d="M37.5 25.3125H48.75C49.4959 25.3125 50.2113 25.0162 50.7387 24.4887C51.2662 23.9613 51.5625 23.2459 51.5625 22.5V11.25C51.5625 10.5041 51.2662 9.78871 50.7387 9.26126C50.2113 8.73382 49.4959 8.4375 48.75 8.4375H37.5C36.7541 8.4375 36.0387 8.73382 35.5113 9.26126C34.9838 9.78871 34.6875 10.5041 34.6875 11.25V15.9375H30C28.7568 15.9375 27.5645 16.4314 26.6854 17.3104C25.8064 18.1895 25.3125 19.3818 25.3125 20.625V29.0625H15.9375V26.25C15.9375 25.5041 15.6412 24.7887 15.1137 24.2613C14.5863 23.7338 13.8709 23.4375 13.125 23.4375H5.625C4.87908 23.4375 4.16371 23.7338 3.63626 24.2613C3.10882 24.7887 2.8125 25.5041 2.8125 26.25V33.75C2.8125 34.4959 3.10882 35.2113 3.63626 35.7387C4.16371 36.2662 4.87908 36.5625 5.625 36.5625H13.125C13.8709 36.5625 14.5863 36.2662 15.1137 35.7387C15.6412 35.2113 15.9375 34.4959 15.9375 33.75V30.9375H25.3125V39.375C25.3125 40.6182 25.8064 41.8105 26.6854 42.6896C27.5645 43.5686 28.7568 44.0625 30 44.0625H34.6875V48.75C34.6875 49.4959 34.9838 50.2113 35.5113 50.7387C36.0387 51.2662 36.7541 51.5625 37.5 51.5625H48.75C49.4959 51.5625 50.2113 51.2662 50.7387 50.7387C51.2662 50.2113 51.5625 49.4959 51.5625 48.75V37.5C51.5625 36.7541 51.2662 36.0387 50.7387 35.5113C50.2113 34.9838 49.4959 34.6875 48.75 34.6875H37.5C36.7541 34.6875 36.0387 34.9838 35.5113 35.5113C34.9838 36.0387 34.6875 36.7541 34.6875 37.5V42.1875H30C29.2541 42.1875 28.5387 41.8912 28.0113 41.3637C27.4838 40.8363 27.1875 40.1209 27.1875 39.375V20.625C27.1875 19.8791 27.4838 19.1637 28.0113 18.6363C28.5387 18.1088 29.2541 17.8125 30 17.8125H34.6875V22.5C34.6875 23.2459 34.9838 23.9613 35.5113 24.4887C36.0387 25.0162 36.7541 25.3125 37.5 25.3125ZM14.0625 33.75C14.0625 33.9986 13.9637 34.2371 13.7879 34.4129C13.6121 34.5887 13.3736 34.6875 13.125 34.6875H5.625C5.37636 34.6875 5.1379 34.5887 4.96209 34.4129C4.78627 34.2371 4.6875 33.9986 4.6875 33.75V26.25C4.6875 26.0014 4.78627 25.7629 4.96209 25.5871C5.1379 25.4113 5.37636 25.3125 5.625 25.3125H13.125C13.3736 25.3125 13.6121 25.4113 13.7879 25.5871C13.9637 25.7629 14.0625 26.0014 14.0625 26.25V33.75ZM36.5625 37.5C36.5625 37.2514 36.6613 37.0129 36.8371 36.8371C37.0129 36.6613 37.2514 36.5625 37.5 36.5625H48.75C48.9986 36.5625 49.2371 36.6613 49.4129 36.8371C49.5887 37.0129 49.6875 37.2514 49.6875 37.5V48.75C49.6875 48.9986 49.5887 49.2371 49.4129 49.4129C49.2371 49.5887 48.9986 49.6875 48.75 49.6875H37.5C37.2514 49.6875 37.0129 49.5887 36.8371 49.4129C36.6613 49.2371 36.5625 48.9986 36.5625 48.75V37.5ZM36.5625 11.25C36.5625 11.0014 36.6613 10.7629 36.8371 10.5871C37.0129 10.4113 37.2514 10.3125 37.5 10.3125H48.75C48.9986 10.3125 49.2371 10.4113 49.4129 10.5871C49.5887 10.7629 49.6875 11.0014 49.6875 11.25V22.5C49.6875 22.7486 49.5887 22.9871 49.4129 23.1629C49.2371 23.3387 48.9986 23.4375 48.75 23.4375H37.5C37.2514 23.4375 37.0129 23.3387 36.8371 23.1629C36.6613 22.9871 36.5625 22.7486 36.5625 22.5V11.25Z" fill="#0068DE"/>
</svg>
