<svg width="60" height="60" viewBox="0 0 60 60" fill="none" xmlns="http://www.w3.org/2000/svg">
<path d="M8.87 24.3371C9.98969 20.1578 12.3236 16.4044 15.5765 13.5516C18.8295 10.6988 22.8554 8.87478 27.1451 8.31014C31.4347 7.7455 35.7955 8.46563 39.6759 10.3795C43.5563 12.2933 46.782 15.3149 48.945 19.0621L49.7825 20.9596M49.7825 20.9596C50.3671 20.863 50.8985 20.5619 51.2817 20.11C51.665 19.658 51.8752 19.0846 51.875 18.4921V8.12459M49.7825 20.9596C49.6492 20.9813 49.5133 20.9921 49.375 20.9921H39.0075M8.125 51.8746V41.5071C8.125 40.844 8.38839 40.2082 8.85723 39.7393C9.32607 39.2705 9.96196 39.0071 10.625 39.0071M10.625 39.0071H20.9925M10.625 39.0071L11.055 40.9371C13.218 44.6843 16.4437 47.7059 20.3241 49.6197C24.2045 51.5335 28.5653 52.2537 32.8549 51.689C37.1446 51.1244 41.1705 49.3003 44.4235 46.4475C47.6764 43.5948 50.0103 39.8414 51.13 35.6621" stroke="#0068DE" stroke-width="2" stroke-linecap="round" stroke-linejoin="round"/>
</svg>
