<svg width="60" height="60" viewBox="0 0 60 60" fill="none" xmlns="http://www.w3.org/2000/svg">
<path fill-rule="evenodd" clip-rule="evenodd" d="M25 10H50C50.663 10 51.2989 10.2634 51.7678 10.7322C52.2366 11.2011 52.5 11.837 52.5 12.5C52.5 13.163 52.2366 13.7989 51.7678 14.2678C51.2989 14.7366 50.663 15 50 15H25C24.337 15 23.7011 14.7366 23.2322 14.2678C22.7634 13.7989 22.5 13.163 22.5 12.5C22.5 11.837 22.7634 11.2011 23.2322 10.7322C23.7011 10.2634 24.337 10 25 10ZM25 27.5H50C50.663 27.5 51.2989 27.7634 51.7678 28.2322C52.2366 28.7011 52.5 29.337 52.5 30C52.5 30.663 52.2366 31.2989 51.7678 31.7678C51.2989 32.2366 50.663 32.5 50 32.5H25C24.337 32.5 23.7011 32.2366 23.2322 31.7678C22.7634 31.2989 22.5 30.663 22.5 30C22.5 29.337 22.7634 28.7011 23.2322 28.2322C23.7011 27.7634 24.337 27.5 25 27.5ZM25 45H50C50.663 45 51.2989 45.2634 51.7678 45.7322C52.2366 46.2011 52.5 46.837 52.5 47.5C52.5 48.163 52.2366 48.7989 51.7678 49.2678C51.2989 49.7366 50.663 50 50 50H25C24.337 50 23.7011 49.7366 23.2322 49.2678C22.7634 48.7989 22.5 48.163 22.5 47.5C22.5 46.837 22.7634 46.2011 23.2322 45.7322C23.7011 45.2634 24.337 45 25 45ZM11.25 10C10.9185 10 10.6005 9.8683 10.3661 9.63388C10.1317 9.39946 10 9.08152 10 8.75C10 8.41848 10.1317 8.10054 10.3661 7.86612C10.6005 7.6317 10.9185 7.5 11.25 7.5H13.75C14.45 7.5 15 8.05 15 8.75V16.25C15 16.5815 14.8683 16.8995 14.6339 17.1339C14.3995 17.3683 14.0815 17.5 13.75 17.5C13.4185 17.5 13.1005 17.3683 12.8661 17.1339C12.6317 16.8995 12.5 16.5815 12.5 16.25V10.0375L11.25 10ZM11.25 25H16.25C16.95 25 17.5 25.55 17.5 26.25V27.5L13.25 32.5H16.25C16.95 32.5 17.5 33.05 17.5 33.75C17.5 34.45 16.94 35 16.25 35H11.25C10.55 35 10 34.45 10 33.75V32.5L14.25 27.5H11.25C10.55 27.5 10 26.95 10 26.25C10 25.55 10.4975 25 11.25 25ZM16.25 52.5H11.25C10.9185 52.5 10.6005 52.3683 10.3661 52.1339C10.1317 51.8995 10 51.5815 10 51.25C10 50.9185 10.1317 50.6005 10.3661 50.3661C10.6005 50.1317 10.9185 50 11.25 50H15V48.75H11.25C10.9185 48.75 10.6005 48.6183 10.3661 48.3839C10.1317 48.1495 10 47.8315 10 47.5C10 47.1685 10.1317 46.8505 10.3661 46.6161C10.6005 46.3817 10.9185 46.25 11.25 46.25H15V45H11.25C10.9185 45 10.6005 44.8683 10.3661 44.6339C10.1317 44.3995 10 44.0815 10 43.75C10 43.4185 10.1317 43.1005 10.3661 42.8661C10.6005 42.6317 10.9185 42.5 11.25 42.5H16.25C16.5815 42.5 16.8995 42.6317 17.1339 42.8661C17.3683 43.1005 17.5 43.4185 17.5 43.75V51.25C17.5 51.5815 17.3683 51.8995 17.1339 52.1339C16.8995 52.3683 16.5815 52.5 16.25 52.5Z" fill="#0068DE"/>
</svg>
