<svg width="24" height="24" viewBox="0 0 24 24" fill="none" xmlns="http://www.w3.org/2000/svg">
<path d="M8.308 15.692V17.25C8.308 17.3767 8.35 17.482 8.434 17.566C8.518 17.65 8.62333 17.692 8.75 17.692C8.87667 17.692 8.982 17.65 9.066 17.566C9.15 17.482 9.192 17.3767 9.192 17.25V15.692H10.75C10.8767 15.692 10.982 15.65 11.066 15.566C11.15 15.4827 11.192 15.3773 11.192 15.25C11.192 15.1227 11.15 15.0173 11.066 14.934C10.982 14.8507 10.8767 14.8087 10.75 14.808H9.192V13.25C9.192 13.1233 9.15 13.018 9.066 12.934C8.982 12.85 8.87667 12.808 8.75 12.808C8.62333 12.808 8.518 12.85 8.434 12.934C8.35 13.018 8.308 13.1233 8.308 13.25V14.808H6.75C6.62333 14.808 6.518 14.85 6.434 14.934C6.35 15.0173 6.308 15.1227 6.308 15.25C6.308 15.3773 6.35 15.4827 6.434 15.566C6.51733 15.65 6.62267 15.692 6.75 15.692H8.308ZM13.75 16.942H17.25C17.3767 16.942 17.482 16.9 17.566 16.816C17.65 16.7327 17.692 16.6273 17.692 16.5C17.692 16.3727 17.65 16.2673 17.566 16.184C17.4827 16.1 17.3773 16.058 17.25 16.058H13.75C13.6233 16.058 13.518 16.1 13.434 16.184C13.35 16.268 13.308 16.3733 13.308 16.5C13.308 16.6267 13.35 16.732 13.434 16.816C13.518 16.9 13.6233 16.942 13.75 16.942ZM13.75 14.442H17.25C17.3767 14.442 17.482 14.4 17.566 14.316C17.65 14.2327 17.692 14.1273 17.692 14C17.692 13.8727 17.65 13.7673 17.566 13.684C17.4827 13.6 17.3773 13.558 17.25 13.558H13.75C13.6233 13.558 13.518 13.6 13.434 13.684C13.35 13.768 13.308 13.8733 13.308 14C13.308 14.1267 13.35 14.232 13.434 14.316C13.518 14.4 13.6233 14.442 13.75 14.442ZM7 8.892H10.5C10.6267 8.892 10.732 8.85 10.816 8.766C10.9 8.68267 10.942 8.57733 10.942 8.45C10.942 8.32267 10.9 8.21733 10.816 8.134C10.732 8.05067 10.6267 8.00867 10.5 8.008H7C6.87333 8.008 6.768 8.05 6.684 8.134C6.6 8.218 6.558 8.32333 6.558 8.45C6.558 8.57667 6.6 8.682 6.684 8.766C6.768 8.85 6.87333 8.892 7 8.892ZM5.616 20C5.15533 20 4.771 19.846 4.463 19.538C4.155 19.23 4.00067 18.8453 4 18.384V5.616C4 5.15533 4.15433 4.771 4.463 4.463C4.77167 4.155 5.156 4.00067 5.616 4H18.385C18.845 4 19.2293 4.15433 19.538 4.463C19.8467 4.77167 20.0007 5.156 20 5.616V18.385C20 18.845 19.846 19.2293 19.538 19.538C19.23 19.8467 18.8453 20.0007 18.384 20H5.616ZM5.616 19H18.385C18.5383 19 18.6793 18.936 18.808 18.808C18.9367 18.68 19.0007 18.5387 19 18.384V5.616C19 5.462 18.936 5.32067 18.808 5.192C18.68 5.06333 18.5387 4.99933 18.384 5H5.616C5.462 5 5.32067 5.064 5.192 5.192C5.06333 5.32 4.99933 5.46133 5 5.616V18.385C5 18.5383 5.064 18.6793 5.192 18.808C5.32 18.9367 5.461 19.0007 5.615 19M15.5 9.089L16.587 10.175C16.673 10.261 16.7743 10.3073 16.891 10.314C17.0077 10.32 17.1153 10.2737 17.214 10.175C17.3087 10.0803 17.357 9.977 17.359 9.865C17.3603 9.75233 17.3137 9.64667 17.219 9.548L16.127 8.45L17.214 7.364C17.2993 7.27733 17.3453 7.176 17.352 7.06C17.3587 6.94333 17.3127 6.83567 17.214 6.737C17.1153 6.63833 17.0107 6.589 16.9 6.589C16.7893 6.589 16.685 6.63833 16.587 6.737L15.5 7.823L14.414 6.737C14.3273 6.65033 14.2257 6.604 14.109 6.598C13.9923 6.592 13.8847 6.63833 13.786 6.737C13.6873 6.83567 13.6383 6.94 13.639 7.05C13.6397 7.16 13.689 7.26467 13.787 7.364L14.873 8.45L13.781 9.548C13.699 9.634 13.6547 9.73533 13.648 9.852C13.6413 9.96867 13.6877 10.0763 13.787 10.175C13.8863 10.2737 13.9907 10.323 14.1 10.323C14.2093 10.323 14.314 10.2737 14.414 10.175L15.5 9.089Z" fill="white"/>
</svg>
